<svg t="1666602081494" class="icon" viewBox="0 0 1024 1024" version="1.1" xmlns="http://www.w3.org/2000/svg" p-id="2549" width="32" height="32"><path d="M512 1022.060606c281.69697 0 510.060606-228.363636 510.060606-510.060606S793.69697 1.939394 512 1.939394 1.939394 230.30303 1.939394 512 230.30303 1022.060606 512 1022.060606z m0-58.181818c-249.565091 0-451.878788-202.313697-451.878788-451.878788C60.121212 262.434909 262.434909 60.121212 512 60.121212c249.565091 0 451.878788 202.313697 451.878788 451.878788 0 249.565091-202.313697 451.878788-451.878788 451.878788z" p-id="2550" fill="#8a8a8a"></path><path d="M680.114424 654.871273c-30.153697 64.744727-95.158303 107.019636-167.842909 107.019636-72.680727 0-137.685333-42.274909-167.83903-107.019636a29.090909 29.090909 0 1 0-52.743758 24.560485c39.617939 85.069576 125.071515 140.644848 220.586667 140.644848 95.511273 0 180.964848-55.575273 220.582788-140.644848a29.090909 29.090909 0 0 0-52.743758-24.560485z" p-id="2551" fill="#8a8a8a"></path><path d="M323.878788 385.939394m-71.757576 0a71.757576 71.757576 0 1 0 143.515152 0 71.757576 71.757576 0 1 0-143.515152 0Z" p-id="2552" fill="#8a8a8a"></path><path d="M700.121212 385.939394m-71.757576 0a71.757576 71.757576 0 1 0 143.515152 0 71.757576 71.757576 0 1 0-143.515152 0Z" p-id="2553" fill="#8a8a8a"></path></svg>