<svg t="1675517034509" class="icon" viewBox="0 0 1024 1024" version="1.1" xmlns="http://www.w3.org/2000/svg" p-id="15178" width="32" height="32"><path d="M84.1 354l419.6 194.9c4.3 2 9 3 13.6 3s9.3-1 13.6-3l417.6-194.7c11.3-5.2 18.6-16.5 18.7-28.9 0.1-12.4-7-23.8-18.2-29.2L531.4 93c-8.9-4.3-19.3-4.3-28.1 0L83.6 295.7c-11.2 5.4-18.4 16.8-18.3 29.4 0.2 12.4 7.5 23.7 18.8 28.9z m433.1-196l342.5 166.5L517.2 484 173 324.2 517.2 158z m396.1 333.1L515.6 699.3 112.8 485.1c-15.7-8.4-35.3-2.4-43.7 13.3-8.4 15.7-2.4 35.3 13.3 43.7l417.9 222.1c4.7 2.5 10 3.7 15.1 3.7s10.3-1.2 14.9-3.7l412.8-216.1c15.8-8.3 21.9-27.7 13.6-43.6-8.1-15.6-27.6-21.7-43.4-13.4z m0 169.1L515.6 868.5 112.8 654.4c-15.7-8.4-35.3-2.4-43.7 13.3-8.4 15.7-2.4 35.3 13.3 43.7l417.9 222.1c4.7 2.5 10 3.7 15.1 3.7s10.3-1.2 14.9-3.7l412.8-216.1c15.8-8.3 21.9-27.7 13.6-43.6-8.1-15.7-27.6-21.8-43.4-13.6z m0 0" p-id="15179" fill="#8a8a8a"></path></svg>