<svg t="1675516999083" class="icon" viewBox="0 0 1024 1024" version="1.1" xmlns="http://www.w3.org/2000/svg" p-id="12894" width="32" height="32"><path d="M156.3 527.5c7.2 0 14.4-2.6 20.1-7.8l247.9-224.9L600 476.7l224.4-245.3 66.2 66.2V125.2H718.3l63.7 63.7-0.7 0.7-182.4 199.5-171.7-177.8-291 264c-12.3 11.1-13.2 30.1-2.1 42.4 5.9 6.4 14.1 9.8 22.2 9.8zM195.6 904h-60V659c0-16.6 13.4-30 30-30s30 13.4 30 30v245z" p-id="12895" fill="#8a8a8a"></path><path d="M427 904h-60V489.4c0-16.6 13.4-30 30-30s30 13.4 30 30V904z m231.3 0h-60V577c0-16.6 13.4-30 30-30s30 13.4 30 30v327z m231.3 0h-60V432.7c0-16.6 13.4-30 30-30s30 13.4 30 30V904z" p-id="12896" fill="#8a8a8a"></path></svg>