<svg t="1676103222283" class="icon" viewBox="0 0 1024 1024" version="1.1" xmlns="http://www.w3.org/2000/svg" p-id="3363" width="32" height="32"><path d="M512 960c-246.784 0-448-201.216-448-448S265.216 64 512 64s448 201.216 448 448-201.216 448-448 448z m0-834.56c-212.992 0-386.56 173.568-386.56 386.56s173.568 386.56 386.56 386.56 386.56-173.568 386.56-386.56-173.568-386.56-386.56-386.56z" p-id="3364" fill="#8a8a8a"></path><path d="M554.496 246.784c29.696 7.168 44.032 41.984 37.376 71.68-7.168 29.696-34.816 54.784-64.512 47.616-29.696-7.168-40.96-41.472-34.304-71.168 7.168-29.696 31.744-55.296 61.44-48.128zM427.008 466.432s89.6-78.336 124.416-62.976c23.552 6.144 10.752 112.128 7.168 126.464-1.024 12.8-21.504 174.08-16.384 181.248 7.168 26.624 15.36 5.632 40.448-15.36 0 0 58.88-39.936-4.096 43.008-52.224 55.808-102.912 48.64-110.592 6.656-6.144-31.744 18.944-223.744 25.088-266.752 2.048-14.336-15.872 0-15.872 0s-48.64 30.208-60.416 9.728c-3.072-5.632 1.536-14.336 10.24-22.016z" p-id="3365" fill="#8a8a8a"></path></svg>