<svg t="1663138233923" class="icon" viewBox="0 0 1024 1024" version="1.1" xmlns="http://www.w3.org/2000/svg" p-id="3987" width="32" height="32"><path d="M288 98.2c105.1 0 190.2 85.2 190.2 190.2v178.2c0 6.6-5.4 12-12 12H288c-105.1 0-190.2-85.2-190.2-190.2 0-105.3 84.8-190.2 190.2-190.2z m1.7 449.6h176.5c6.6 0 12 5.4 12 12v176.5c0 105.4-86.3 192.7-191.7 191.9-103.9-0.8-188-84.9-188.8-188.8-0.7-105.3 86.6-191.6 192-191.6zM737.6 98.2c104.9 0 190 85 190.2 189.9 0.2 104.8-87 190.6-191.9 190.6H559.4c-6.6 0-12-5.4-12-12V288.5c0-105.1 85.1-190.3 190.2-190.3zM559.4 547.8h176.5c105.4 0 192.7 86.3 191.9 191.7-0.8 103.9-84.9 188-188.8 188.8-105.4 0.8-191.7-86.5-191.7-191.9V559.8c0.1-6.6 5.5-12 12.1-12z" p-id="3988" fill="#8a8a8a"></path></svg>