<svg t="1663152953043" class="icon" viewBox="0 0 1024 1024" version="1.1" xmlns="http://www.w3.org/2000/svg" p-id="3961" width="32" height="32"><path d="M576.98816 862.44352l-385.3312-385.3312-119.808 119.808-0.07168 0.07168a36.28032 36.28032 0 0 0 0.11776 51.3024l278.34368 277.07392L356.352 931.84h151.552l6.16448-6.47168 62.91968-62.9248z m36.1984-36.1984l342.8608-342.8608a36.28032 36.28032 0 0 0 0-51.3024l-334.0288-334.0288a36.28032 36.28032 0 0 0-51.3024 0L227.86048 440.91392l385.3312 385.3312zM284.17536 931.84L35.77856 684.58496C1.536 650.50112 1.408 595.11296 35.49184 560.87552l0.14336-0.14336 498.87744-498.88256c34.16576-34.16064 89.5488-34.16064 123.71456 0l334.0288 334.0288c34.15552 34.16064 34.15552 89.5488 0 123.70944L579.9936 931.84h409.856c16.10752 0 29.16352 10.3168 29.16352 23.04s-13.056 23.04-29.1584 23.04H33.42848c-16.1024 0-29.1584-10.3168-29.1584-23.04s13.056-23.04 29.1584-23.04h250.74176z" fill="#8a8a8a" p-id="3962"></path></svg>