<svg t="1663153233990" class="icon" viewBox="0 0 1024 1024" version="1.1" xmlns="http://www.w3.org/2000/svg" p-id="15116" width="32" height="32"><path d="M773.888 0H250.368a122.368 122.368 0 0 0-122.24 122.24v779.52A122.368 122.368 0 0 0 250.368 1024h523.52a122.368 122.368 0 0 0 122.24-122.24V122.24A122.368 122.368 0 0 0 773.888 0zM170.794667 901.76V122.24C170.794667 78.378667 206.506667 42.666667 250.368 42.666667h48.341333v938.666666H250.368a79.701333 79.701333 0 0 1-79.573333-79.573333z m682.666666 0A79.701333 79.701333 0 0 1 773.888 981.333333H341.376V42.666667h432.512c43.861333 0 79.573333 35.712 79.573333 79.573333v779.52z" p-id="15117" fill="#8a8a8a"></path><path d="M703.146667 256h-254.122667a21.333333 21.333333 0 0 0 0 42.666667h254.122667a21.333333 21.333333 0 0 0 0-42.666667zM617.6 341.333333h-168.533333a21.333333 21.333333 0 0 0 0 42.666667h168.533333a21.333333 21.333333 0 0 0 0-42.666667z" p-id="15118" fill="#8a8a8a"></path></svg>