<svg t="1676293564046" class="icon" viewBox="0 0 1024 1024" version="1.1" xmlns="http://www.w3.org/2000/svg" p-id="4943" width="32" height="32"><path d="M943.8 484.1c-17.5-13.7-42.8-10.7-56.6 6.8-5.7 7.3-8.5 15.8-8.6 24.4h-0.4c-0.6 78.3-26.1 157-78 223.3-124.9 159.2-356 187.1-515.2 62.3-31.7-24.9-58.2-54-79.3-85.9h77.1c22.4 0 40.7-18.3 40.7-40.7v-3c0-22.4-18.3-40.7-40.7-40.7H105.5c-22.4 0-40.7 18.3-40.7 40.7v177.3c0 22.4 18.3 40.7 40.7 40.7h3c22.4 0 40.7-18.3 40.7-40.7v-73.1c24.2 33.3 53 63.1 86 89 47.6 37.3 101 64.2 158.9 79.9 55.9 15.2 113.5 19.3 171.2 12.3 57.7-7 112.7-24.7 163.3-52.8 52.5-29 98-67.9 135.3-115.4 37.3-47.6 64.2-101 79.9-158.9 10.2-37.6 15.4-76 15.6-114.6h-0.1c-0.3-11.6-5.5-23.1-15.5-30.9zM918.7 135.2h-3c-22.4 0-40.7 18.3-40.7 40.7V249c-24.2-33.3-53-63.1-86-89-47.6-37.3-101-64.2-158.9-79.9-55.9-15.2-113.5-19.3-171.2-12.3-57.7 7-112.7 24.7-163.3 52.8-52.5 29-98 67.9-135.3 115.4-37.3 47.5-64.2 101-79.9 158.8-10.2 37.6-15.4 76-15.6 114.6h0.1c0.2 11.7 5.5 23.2 15.4 30.9 17.5 13.7 42.8 10.7 56.6-6.8 5.7-7.3 8.5-15.8 8.6-24.4h0.4c0.6-78.3 26.1-157 78-223.3 124.9-159.2 356-187.1 515.2-62.3 31.7 24.9 58.2 54 79.3 85.9h-77.1c-22.4 0-40.7 18.3-40.7 40.7v3c0 22.4 18.3 40.7 40.7 40.7h177.3c22.4 0 40.7-18.3 40.7-40.7V175.8c0.1-22.3-18.2-40.6-40.6-40.6z" p-id="4944" fill="#8a8a8a"></path></svg>