<svg t="1667350916808" class="icon" viewBox="0 0 1024 1024" version="1.1" xmlns="http://www.w3.org/2000/svg" p-id="24344" width="64" height="64"><path d="M808 166V112.4h104c52.4 0 94.8 42.4 94.8 94.8 0 5.6-0.4 10.8-1.6 16.4l-26.8 152c-15.2 86.4-90.4 149.6-178.4 149.6h-30.4v-54h30.4c61.6 0 114.4-44.4 125.2-105.2l26.8-152c0.4-2.4 0.8-4.8 0.8-7.2 0-22.4-18.4-40.8-40.8-40.8h-104zM200.4 166a26.8 26.8 0 0 0 0-53.6H110.8C58.4 112.4 16 154.8 16 206.8c0 5.6 0.4 10.8 1.6 16.4l26.8 152c15.2 86.4 90.4 149.6 178.4 149.6h40.4a26.8 26.8 0 0 0 0-53.6H222.4c-61.6 0-114.4-44.4-125.2-105.2l-26.8-152c-0.4-2.4-0.8-4.8-0.8-7.2 0-22.4 18.4-40.8 40.8-40.8h90z" fill="#D2C7B5" p-id="24345"></path><path d="M480.8 736.8h54v206.8h-54z" fill="#A49273" p-id="24346"></path><path d="M234 40.4l551.6-4c22 0 40 17.6 40.4 39.6 0 1.6 0 3.2-0.4 4.4l-46.8 436.8c-4 37.6-7.2 50.8-12.8 65.2-5.6 14-13.2 26.4-23.6 37.6-10.4 11.2-20.8 19.6-53.2 39.6l-122.8 75.2c-23.2 14-32.4 17.6-43.2 20-10.8 2.4-21.6 2-32.4-0.4s-20-6.4-42.4-21.6L326.4 652c-30.8-20.4-40.8-28.8-50.4-39.6-10-10.8-17.2-22.8-22.4-36.4-5.2-13.6-8.4-26.4-12.4-63.2l-46.8-428c-2.4-22 13.6-41.6 35.6-44 1.2-0.4 2.8-0.4 4-0.4zM393.2 886.4h234c16.4 0 30.8 10 37.2 24.8l13.6 34c8.4 20.4-1.6 43.6-22 52-4.8 2-10 2.8-15.2 2.8H379.2c-22 0-40-18-40-40 0-5.2 0.8-10.4 2.8-15.2l13.6-34c6.4-14.8 21.2-24.4 37.6-24.4z" fill="#A49273" p-id="24347"></path><path d="M517.2 178.4l46.8 88 93.6 19.2L591.6 360l10.8 99.2-85.2-44-88.4 44L440 360 374 285.6l93.6-19.2 49.6-88" fill="#D2C7B5" p-id="24348"></path></svg>