<svg t="1666708625204" class="icon" viewBox="0 0 1142 1024" version="1.1" xmlns="http://www.w3.org/2000/svg" p-id="1878" width="32" height="32"><path d="M630.927308 1023.999447a510.052589 510.052589 0 0 1-351.83671-140.052401 26.092712 26.092712 0 0 1 35.865954-37.986563 459.711173 459.711173 0 1 0-140.790004-386.135258 26.184912 26.184912 0 0 1-52.001024-5.808625 511.988798 511.988798 0 1 1 508.761784 569.982847z" fill="#8a8a8a" p-id="1879"></path><path d="M148.811439 485.641336H147.520633a42.412182 42.412182 0 0 1-30.42613-13.737859L6.91503 352.596165a26.184912 26.184912 0 0 1 38.447565-35.497152l103.817645 112.300082 116.4491-113.222086a26.092712 26.092712 0 0 1 36.419157 37.43336l-123.27193 119.860515a42.780984 42.780984 0 0 1-29.965128 12.170452z" fill="#8a8a8a" p-id="1880"></path></svg>