<svg t="1663140586534" class="icon" viewBox="0 0 1024 1024" version="1.1" xmlns="http://www.w3.org/2000/svg" p-id="6634" width="32" height="32"><path d="M417.002392 923.878698a281.951557 281.951557 0 0 1-21.500686-0.828878c-29.435403-1.709945-59.19417-7.813966-86.075401-17.662265-0.192382-0.071631-0.385786-0.144286-0.577145-0.217964-35.646871-13.923104-71.148433-36.481889-102.671381-65.236793-31.181163-28.009937-58.71117-63.172785-79.620385-101.697194l-0.12689-0.23536c-40.089044-75.513858-56.325843-160.556743-46.955428-245.931179 9.521864-86.822414 45.083801-170.644495 100.135628-236.022505 44.059472-52.65729 102.157681-94.972025 167.951153-122.29737 53.156664-22.004153 111.14231-33.627888 167.721933-33.627888 12.359492 0 24.785499 0.554632 36.930097 1.649569 108.443851 9.998725 208.331839 61.167105 281.320177 144.085606l0.112564 0.127914c73.164347 84.105536 113.458051 193.177698 113.458051 307.123866 0.00614 72.103178-9.296737 115.90273-30.160927 142.013411-0.097214 0.121773-0.197498 0.24457-0.295735 0.364297-8.973372 10.861372-25.964348 23.809265-55.96257 23.809265-18.8493 0-40.986483-4.968152-67.676355-15.188934a28.994358 28.994358 0 0 1-4.067642-1.930979l-16.875343-6.460132a37.029358 37.029358 0 0 1-0.523933-0.206708l-0.411369-0.166799c-33.437553-13.549597-65.019853-26.347065-92.489484-26.347064-2.215458 0-4.408403 0.084934-6.517437 0.25378-0.310062 0.024559-0.620124 0.045025-0.931209 0.060375-20.428262 0.976234-35.292807 9.19236-46.770209 25.853831-11.576663 17.171078-18.898419 44.211944-21.766747 80.377632-0.933255 17.323551-3.950985 32.91669-9.225105 47.659463a21.908986 21.908986 0 0 1-0.265036 0.710174c-13.669324 35.279504-40.560788 62.772672-77.778434 79.525218-28.5308 13.374612-62.547545 20.443611-98.384752 20.443611z m-87.317694-72.889077c21.312398 7.769964 45.952588 12.785188 69.419046 14.124695 0.199545 0.011256 0.400113 0.024559 0.601704 0.039909 5.774517 0.450255 11.593036 0.678452 17.295921 0.678452 27.451212 0 53.011354-5.198395 73.9175-15.031344 0.160659-0.074701 0.319272-0.148379 0.481977-0.221034 23.306822-10.447956 39.288818-26.358321 47.50699-47.288003 3.304256-9.358135 5.203512-19.558451 5.80624-31.166837 0.014326-0.255827 0.029676-0.508583 0.050142-0.762363 3.697205-47.191812 14.043854-82.778308 31.627325-108.787682 0.039909-0.059352 0.078795-0.11768 0.119726-0.174985 21.595854-31.445176 53.209876-49.089022 91.451852-51.046607 3.496637-0.267083 7.088442-0.404206 10.68434-0.404206 38.784328 0 77.169567 15.554254 114.289999 30.596855l0.150426 0.061399 18.857487 7.219425a28.939099 28.939099 0 0 1 4.0175 1.902326c23.177885 8.668427 37.08257 10.521634 44.727691 10.521635 2.650363 0 8.975419-0.257873 11.111058-2.616594 6.545066-8.414647 17.267269-33.249265 17.262153-105.523335 0-99.914594-35.20992-195.428971-99.147114-268.959662-63.148226-71.705112-149.434427-115.948779-242.967684-124.57218a354.328981 354.328981 0 0 0-31.660071-1.410116c-49.02967 0-99.339496 10.097986-145.488559 29.201066-57.174164 23.74582-107.576087 60.402695-145.724942 105.997126-47.775096 56.736189-78.613452 129.528052-86.895069 205.033723-8.090259 73.711815 5.90243 147.110499 40.463573 212.266451 17.792225 32.748868 41.097 62.536288 67.403133 86.151126l0.178055 0.161682c25.870204 23.613814 55.853076 42.785455 84.459601 54.009078z" p-id="6635" fill="#8a8a8a"></path><path d="M430.531524 228.957599c10.891048 0 22.227234 4.974291 31.124881 13.672394 8.105608 7.90811 12.388145 18.349927 12.388145 30.196742 0 12.112875-4.400217 23.077601-12.410658 30.893615-8.206916 8.020674-19.543102 12.620435-31.103392 12.620435-11.531638 0-22.39301-4.369517-29.798676-11.988032l-0.336668-0.345878-0.345877-0.336667c-7.969509-7.756661-12.358469-18.710131-12.358469-30.842449 0-11.868305 4.273327-22.300912 12.358469-30.16809l4.353144-4.236488 0.362251-0.74292c7.208169-5.588275 16.35448-8.722662 25.76685-8.722662m0-34.805714c-20.795629 0-40.206724 8.306176-54.081733 22.182208l-0.674359 1.38351c-14.585183 14.19428-22.889313 33.606399-22.889313 55.112202 0 21.824051 8.303106 41.590234 22.889313 55.785538 13.485129 13.871939 33.251312 22.535249 54.757115 22.535249 21.468964 0 41.235147-8.66024 55.431473-22.535249 14.550391-14.19428 22.889313-33.960463 22.889313-55.785538 0-21.50478-8.338922-40.916898-22.889313-55.112202-14.19735-13.876032-33.963533-23.565718-55.432496-23.565718zM653.559063 256.187777c10.744715 0 22.060435 4.859681 31.111578 13.348006 8.113795 8.261151 12.401448 18.807345 12.401448 30.523177 0 11.589966-4.514827 22.825868-12.399401 30.908964-8.608052 8.016581-19.921725 12.605086-31.114648 12.605085-10.799974 0-22.626323-4.827959-30.143531-12.30628-8.271384-8.30413-13.015432-19.678178-13.015432-31.207769 0-14.716166 7.077186-24.882714 13.014409-30.818913 7.9296-7.9296 19.762089-13.052271 30.145577-13.05227m0-34.806737c-20.791535 0-41.235147 9.726525-54.757115 23.246447-14.550391 14.550391-23.208585 33.960463-23.208584 55.431473 0 21.149693 8.658194 41.235147 23.208584 55.818283 13.520945 13.485129 33.965579 22.50148 54.757115 22.50148 21.468964 0 41.235147-9.016351 55.431473-22.50148 14.550391-14.582113 22.889313-34.667567 22.889313-55.818283 0-21.468964-8.338922-40.881083-22.889313-55.431473-14.195304-13.519921-33.961486-23.246447-55.431473-23.246447zM387.973242 681.93739c16.205077 0 31.606859 6.487761 43.366694 18.266016 11.785417 11.806907 18.277272 27.293623 18.277272 43.608194 0 16.398482-6.482645 31.911804-18.255783 43.682895-11.734252 11.732206-27.14422 18.193361-43.389206 18.193361-16.565281 0-32.220842-6.507204-44.083008-18.324344-11.80486-11.758812-18.302855-27.225061-18.302855-43.549866 0-16.317641 6.501064-31.780821 18.305925-43.543725 11.864212-11.82328 27.51875-18.332531 44.080961-18.332531m0-34.805713c-53.470819 0-97.192599 43.722804-97.192599 96.681969 0 52.983725 43.722804 96.680946 97.192599 96.680947 52.728922 0 96.450702-43.466977 96.450703-96.680947-0.001023-52.960189-43.722804-96.68197-96.450703-96.681969zM777.277806 468.485951c14.676257 0 24.90011 6.715959 31.004131 12.536524 7.957229 8.570189 12.508895 19.708877 12.508895 30.658253 0 15.077394-7.635911 25.717731-12.499685 30.965246-6.27696 5.975085-16.635889 12.865006-31.014365 12.865006-11.227716 0-22.230304-4.672416-31.005154-13.162788-7.975649-8.054443-12.189623-18.654872-12.189624-30.668487 0-11.476379 4.446265-22.531156 12.205997-30.364565 6.064113-5.886057 16.327874-12.82919 30.989805-12.829189m0-34.806738c-21.50478 0-40.916898 8.656147-55.46729 22.889314-14.19428 14.19428-22.535249 33.960463-22.535249 55.112201 0 21.824051 8.338922 41.235147 22.535249 55.431474 14.550391 14.19428 33.960463 23.205515 55.46729 23.205515 21.824051 0 41.235147-9.011234 55.785537-23.205515 13.520945-14.19428 22.535249-33.606399 22.535249-55.431474 0-21.149693-9.013281-40.916898-22.535249-55.112201-14.550391-14.233166-33.961486-22.889313-55.785537-22.889314zM260.246209 371.561457c11.32493 0 22.503527 4.637624 29.904077 12.407588l0.277316 0.291642 0.283456 0.284479c5.950526 5.965875 13.045107 16.228613 13.045107 31.240515 0 10.689457-4.626367 21.621437-12.07092 28.526707l-1.101077 1.020236-1.010003 1.112334c-7.000438 7.716752-17.688871 12.142551-29.327956 12.142552-11.396561 0-21.796422-4.429893-29.284977-12.47308l-1.158382-1.24434-1.274017-1.124613c-7.497765-6.621814-12.154831-17.337877-12.154831-27.960819 0-14.95562 7.14984-24.919553 13.147438-30.645974l4.519944-4.315282 0.338714-0.696872c7.329942-5.553483 16.341177-8.565073 25.866111-8.565073m0-34.805713c-21.153786 0-40.21184 8.303106-54.085826 21.824051l-0.674359 1.38351c-14.905478 14.230096-23.918759 33.641191-23.918759 55.82033 0 20.795629 9.013281 40.881083 23.918759 54.045917 13.873985 14.905478 33.251312 23.563672 54.760185 23.563671 21.465894 0 41.586141-8.658194 55.107085-23.563671 14.19428-13.165858 23.208585-33.251312 23.208585-54.045917 0-22.179139-9.013281-41.590234-23.208585-55.82033-13.519921-14.19428-33.641191-23.207561-55.107085-23.207561z" p-id="6636" fill="#8a8a8a"></path></svg>