<svg t="1667294070940" class="icon" viewBox="0 0 1024 1024" version="1.1" xmlns="http://www.w3.org/2000/svg" p-id="2554" width="32" height="32"><path d="M208.616727 815.383273c-112.314182 0-203.659636-91.392-203.659636-203.706182 0-112.290909 91.368727-203.659636 203.659636-203.659636s203.682909 91.368727 203.682909 203.659636C412.299636 723.991273 320.930909 815.383273 208.616727 815.383273zM208.616727 454.562909c-86.644364 0-157.114182 70.469818-157.114182 157.114182 0 86.667636 70.493091 157.160727 157.114182 157.160727 86.644364 0 157.137455-70.493091 157.137455-157.160727C365.754182 525.056 295.284364 454.562909 208.616727 454.562909z" p-id="2555" fill="#8a8a8a"></path><path d="M308.224 484.538182c-7.144727 0-14.173091-3.258182-18.734545-9.425455-7.633455-10.333091-5.445818-24.901818 4.864-32.558545l286.324364-211.712c10.356364-7.656727 24.925091-5.445818 32.535273 4.864 7.656727 10.333091 5.469091 24.901818-4.864 32.558545l-286.324364 211.712C317.882182 483.048727 313.041455 484.538182 308.224 484.538182z" p-id="2556" fill="#8a8a8a"></path><path d="M700.183273 324.352c-83.223273 0-150.946909-67.746909-150.946909-150.993455 0-83.223273 67.723636-150.946909 150.946909-150.946909 83.269818 0 150.993455 67.723636 150.993455 150.946909C851.176727 256.605091 783.453091 324.352 700.183273 324.352zM700.183273 68.957091c-57.576727 0-104.401455 46.824727-104.401455 104.401455 0 57.6 46.848 104.448 104.401455 104.448 57.6 0 104.448-46.848 104.448-104.448C804.631273 115.805091 757.783273 68.957091 700.183273 68.957091z" p-id="2557" fill="#8a8a8a"></path><path d="M772.794182 815.383273c-1.838545 0-3.723636-0.209455-5.585455-0.674909l-383.744-94.557091c-12.474182-3.072-20.107636-15.685818-17.035636-28.16 3.095273-12.474182 15.732364-20.177455 28.16-17.012364l383.744 94.557091c12.474182 3.072 20.107636 15.685818 17.012364 28.16C792.738909 808.285091 783.243636 815.383273 772.794182 815.383273z" p-id="2558" fill="#8a8a8a"></path><path d="M884.247273 926.836364c-74.286545 0-134.749091-60.462545-134.749091-134.772364 0-74.286545 60.462545-134.725818 134.749091-134.725818 74.309818 0 134.795636 60.439273 134.795636 134.725818C1019.042909 866.397091 958.557091 926.836364 884.247273 926.836364zM884.247273 703.883636c-48.64 0-88.203636 39.563636-88.203636 88.180364 0 48.663273 39.563636 88.226909 88.203636 88.226909 48.663273 0 88.250182-39.563636 88.250182-88.226909C972.497455 743.447273 932.910545 703.883636 884.247273 703.883636z" p-id="2559" fill="#8a8a8a"></path></svg>