<svg t="1675256772346" class="icon" viewBox="0 0 1024 1024" version="1.1" xmlns="http://www.w3.org/2000/svg" p-id="5014"
    width="32" height="32">
    <path
        d="M782.7968 239.36c-6.0416 0-12.0832-2.0992-16.9472-6.4a368.70144 368.70144 0 0 0-24.6784-19.968 25.6 25.6 0 0 1-5.3248-35.7888 25.6512 25.6512 0 0 1 35.84-5.3248c9.6256 7.168 19.0464 14.7968 28.0576 22.7328a25.60512 25.60512 0 0 1 2.2528 36.1472 25.8048 25.8048 0 0 1-19.2 8.6016z"
        fill="#8a8a8a" p-id="5015"></path>
    <path
        d="M519.68 935.3216c-196.864 0-366.1824-133.5296-411.8016-324.7616a25.58464 25.58464 0 0 1 18.944-30.8224c13.7728-3.328 27.5456 5.2224 30.8224 18.944 40.0896 168.0896 188.928 285.44 361.984 285.44 205.2096 0 372.1216-166.912 372.1216-372.1216 0-85.0432-27.904-165.0688-80.6912-231.424-8.8064-11.0592-6.9632-27.1872 4.096-35.9936s27.1872-6.9632 35.9936 4.096c60.0576 75.52 91.8528 166.6048 91.8528 263.3216 0 233.4208-189.9008 423.3216-423.3216 423.3216zM683.264 121.4464c-51.8656-21.76-106.9056-32.768-163.584-32.768-152.064 0-290.2528 80.7424-365.4656 209.6128V233.6768c0-14.1312-11.4688-25.6-25.6-25.6s-25.6 11.4688-25.6 25.6v126.464c0 14.1312 11.4688 25.6 25.6 25.6h129.6384c14.1312 0 25.6-11.4688 25.6-25.6s-11.4688-25.6-25.6-25.6H192.5632a371.51744 371.51744 0 0 1 327.1168-194.6624c49.8688 0 98.2016 9.6768 143.7696 28.7744a25.53856 25.53856 0 0 0 33.4848-13.7216c5.5296-13.0048-0.6144-28.0064-13.6704-33.4848z"
        fill="#8a8a8a" p-id="5016"></path>
    <path
        d="M704.6656 547.84H487.0144c-14.1312 0-25.6-11.4688-25.6-25.6V254.9248c0-14.1312 11.4688-25.6 25.6-25.6s25.6 11.4688 25.6 25.6V496.64h192.0512c14.1312 0 25.6 11.4688 25.6 25.6s-11.4688 25.6-25.6 25.6z"
        fill="#8a8a8a" p-id="5017"></path>
</svg>