<svg t="1667350771542" class="icon" viewBox="0 0 1024 1024" version="1.1" xmlns="http://www.w3.org/2000/svg" p-id="22332" width="64" height="64"><path d="M820.245634 344.538341V32.050078h-615.361503v310.885759c0 76.920188 36.85759 142.622848 84.932708 195.505478 0 1.602504 1.602504 1.602504 1.602504 1.602503 54.485133 59.292645 123.392801 102.56025 174.672926 129.802817l8.01252 4.807512v92.945227h-48.075118V841.314554h44.87011v16.025039c0 83.330203-133.007825 99.355243-179.480438 102.560251V993.552426h440.688576v-32.050079c-46.472613-3.205008-179.480438-19.230047-179.480439-102.56025v-16.025039h44.87011V769.201878h-48.075117v-92.945227l8.012519-4.807512c97.752739-52.882629 261.208138-163.455399 262.810642-326.910798z" fill="#FAD97F" p-id="22333"></path><path d="M964.470986 105.765258c-44.87011-28.84507-84.932707-20.832551-112.175274-6.410015V0h-679.461659v97.752739c-27.242567-14.422535-67.305164-20.832551-112.175274 8.012519-27.242567 17.627543-41.665102 54.485133-38.460094 102.560251 6.410016 118.58529 100.957746 282.040689 246.785603 357.358372 54.485133 57.690141 120.187793 100.957746 173.070422 128.200313v41.665102h-48.075117V873.364632h40.062598c-19.230047 43.267606-118.58529 54.485133-160.250391 54.485133h-16.025039v96.150235h504.788732v-96.150235h-16.025039c-38.460094 0-139.41784-12.820031-160.250391-54.485133h40.062597v-137.815336h-48.075117v-41.665102c51.280125-27.242567 116.982786-70.510172 171.467919-126.597809 149.032864-73.71518 243.580595-240.375587 251.593114-358.960876 4.807512-48.075117-9.615023-84.932707-36.85759-102.560251z m-407.035994 565.683881l-8.012519 4.807512V769.201878h48.075117v73.71518h-44.87011v16.025039c0 83.330203 133.007825 99.355243 179.480439 102.56025v32.050079h-440.688576v-33.652582c46.472613-3.205008 179.480438-19.230047 179.480438-102.560251v-16.025039h-44.87011v-73.71518h48.075118v-92.945227l-8.01252-4.807512c-51.280125-27.242567-120.187793-70.510172-174.672926-129.802817 0 0-1.602504 0-1.602504-1.602503-48.075117-52.882629-84.932707-118.58529-84.932708-195.505478V32.050078h615.361503v312.488263c-1.602504 163.455399-165.057903 274.028169-262.810642 326.910798z m-503.186228-464.726134c-1.602504-36.85759 6.410016-64.100156 24.037558-75.317684 46.472613-30.447574 81.7277-6.410016 94.547731 4.807512v208.325508c0 54.485133 16.025039 102.56025 40.062598 144.225352-94.547731-78.522692-153.840376-195.505477-158.647887-282.040688z m916.632238 0c-4.807512 86.535211-65.70266 206.723005-161.852896 285.245696 25.640063-43.267606 41.665102-92.945227 41.665102-147.43036V137.815336c11.217527-9.615023 46.472613-36.85759 96.150235-6.410015 17.627543 11.217527 25.640063 38.460094 24.037559 75.317684z" fill="" p-id="22334"></path><path d="M560.64 474.341158h-57.690141V254.798122c-20.832551 19.230047-46.472613 35.255086-75.317684 44.87011v-52.882629c14.422535-4.807512 32.050078-14.422535 49.677622-28.845071s30.447574-30.447574 36.85759-48.075117h48.075117v304.475743h-1.602504z" fill="" p-id="22335"></path></svg>