<svg t="1666754792551" class="icon" viewBox="0 0 1024 1024" version="1.1" xmlns="http://www.w3.org/2000/svg" p-id="7373" width="32" height="32"><path d="M939.264 499.0464l14.1312 26.0096-6.8608 12.544-7.2704 13.4656c-76.0832 138.4448-241.3056 248.1664-403.456 248.1664-162.3552 0-327.5776-109.824-402.944-247.808l-15.104-26.4704 7.5264-13.056 7.3728-12.8C208.0256 360.6016 373.2992 250.88 535.7568 250.88c162.304 0 327.424 109.568 403.456 248.2176z m-290.4064-44.1344c0-2.9696-1.2288-5.632-1.8432-8.704a137.216 137.216 0 0 1-111.6672 216.3712 137.216 137.216 0 0 1-136.8576-137.5232 137.2672 137.2672 0 0 1 136.8576-137.9328c29.0304 0 56.1664 9.5232 78.336 25.1392-3.0208-0.4096-5.7856-1.536-8.8064-1.536a44.4416 44.4416 0 0 0 0 88.7296 44.032 44.032 0 0 0 43.9808-44.544z m-113.1008-150.7328c-141.2608 0-288.9216 98.048-355.6352 220.672 66.8672 122.9312 214.528 221.0816 355.6352 221.0816 141.056 0 288.768-98.0992 355.7888-220.16v-1.4336c-67.072-122.2656-214.6304-220.16-355.7888-220.16z m-447.3344-14.336a32.5632 32.5632 0 1 1-65.1264 0V88.4736c0-35.9936 29.184-65.1264 65.1264-65.1264h209.2544a32.5632 32.5632 0 0 1 0 65.1264H88.4224v201.472z m670.4128-201.4208a32.5632 32.5632 0 1 1 0-65.1264h195.328c35.9936 0 65.1776 29.184 65.1776 65.1264V290.304a32.5632 32.5632 0 1 1-65.1776 0V88.4224h-195.328z m195.328 676.352a32.5632 32.5632 0 0 1 65.1776 0v189.44c0 35.9424-29.184 65.1264-65.1776 65.1264h-201.216a32.5632 32.5632 0 0 1 0-65.1776h201.216v-189.44z m-664.5248 189.44a32.5632 32.5632 0 0 1 0 65.1264h-201.216c-35.9936 0-65.1264-29.184-65.1264-65.1776V754.176a32.5632 32.5632 0 0 1 65.1264 0v199.9872h201.216z" fill="#8a8a8a" p-id="7374"></path></svg>