<svg t="1666602452760" class="icon" viewBox="0 0 1025 1024" version="1.1" xmlns="http://www.w3.org/2000/svg" p-id="15191" width="32" height="32"><path d="M335.499017 372.275126c-9.035446 0-17.532453-3.518292-23.927336-9.913175l-29.592008-29.599383c-6.387507-6.387507-9.913175-14.884514-9.913175-23.927336 0-9.035446 3.518292-17.532453 9.913175-23.927336 6.380131-6.387507 14.877138-9.913175 23.91996-9.913175s17.532453 3.518292 23.927336 9.913175l29.599383 29.599383c6.394883 6.394883 9.913175 14.89189 9.913175 23.927336 0 9.042822-3.525668 17.532453-9.913175 23.927336C353.024094 368.756834 344.527087 372.275126 335.499017 372.275126zM305.899633 300.817656c-2.139004 0-4.152617 0.833474-5.664671 2.345528-1.51943 1.526806-2.352904 3.533044-2.352904 5.679423s0.833474 4.152617 2.345528 5.672047l29.599383 29.599383c3.024108 3.031484 8.305234 3.031484 11.344095 0 1.51943-1.512054 2.352904-3.525668 2.352904-5.672047 0-2.139004-0.833474-4.152617-2.352904-5.672047l-29.599383-29.599383C310.059626 301.65113 308.046013 300.817656 305.899633 300.817656z" p-id="15192" fill="#8a8a8a"></path><path d="M703.547767 372.275126c-9.042822 0-17.539829-3.525668-23.927336-9.920551-13.180687-13.188063-13.180687-34.651857 0-47.83992l29.606759-29.606759c6.387507-6.387507 14.89189-9.905799 23.927336-9.905799 9.035446 0 17.532453 3.518292 23.91996 9.898423 13.188063 13.202815 13.180687 34.666609 0 47.854672l-29.599383 29.599383C721.094972 368.756834 712.597964 372.275126 703.547767 372.275126zM733.154526 300.825032c-2.146379 0-4.159993 0.833474-5.679423 2.345528l-29.599383 29.599383c-3.119995 3.127371-3.127371 8.216724 0 11.344095 3.03886 3.031484 8.31261 3.024108 11.336719 0l29.606759-29.599383c3.127371-3.127371 3.119995-8.2241-0.007376-11.35147C737.307143 301.65113 735.29353 300.825032 733.154526 300.825032z" p-id="15193" fill="#8a8a8a"></path><path d="M268.378561 514.437726l-41.858086 0c-18.660962 0-33.840511-15.179549-33.840511-33.833135s15.179549-33.833135 33.840511-33.833135l41.858086 0c18.653586 0 33.833135 15.179549 33.833135 33.833135S287.039523 514.437726 268.378561 514.437726zM226.520475 472.57964c-4.425525 0-8.024951 3.599427-8.024951 8.017575s3.599427 8.017575 8.024951 8.017575l41.858086 0c4.418149 0 8.017575-3.599427 8.017575-8.017575s-3.599427-8.017575-8.017575-8.017575L226.520475 472.57964z" p-id="15194" fill="#8a8a8a"></path><path d="M812.541061 514.437726l-41.872838 0c-18.653586 0-33.833135-15.179549-33.833135-33.833135s15.179549-33.833135 33.833135-33.833135l41.872838 0c18.653586 0 33.833135 15.179549 33.833135 33.833135S831.194647 514.437726 812.541061 514.437726zM770.668223 472.57964c-4.425525 0-8.017575 3.599427-8.017575 8.017575s3.592051 8.017575 8.017575 8.017575l41.872838 0c4.425525 0 8.017575-3.599427 8.017575-8.017575s-3.592051-8.017575-8.017575-8.017575L770.668223 472.57964z" p-id="15195" fill="#8a8a8a"></path><path d="M519.52708 294.688304c-18.653586 0-33.833135-15.179549-33.833135-33.833135L485.693944 218.989707c0-18.653586 15.179549-33.833135 33.833135-33.833135s33.833135 15.179549 33.833135 33.833135l0 41.858086C553.360215 279.508755 538.180666 294.688304 519.52708 294.688304zM519.52708 210.972132c-4.425525 0-8.017575 3.599427-8.017575 8.017575l0 41.858086c0 4.418149 3.592051 8.017575 8.017575 8.017575s8.017575-3.599427 8.017575-8.017575L527.544655 218.989707C527.544655 214.571558 523.952604 210.972132 519.52708 210.972132z" p-id="15196" fill="#8a8a8a"></path><path d="M519.52708 713.276545c-110.977404 0-201.272857-90.295453-201.272857-201.280233 0-110.977404 90.288077-201.272857 201.272857-201.272857 110.977404 0 201.265481 90.288077 201.265481 201.272857C720.792561 622.981092 630.504484 713.276545 519.52708 713.276545zM519.52708 336.546391c-96.749343 0-175.457297 78.707954-175.457297 175.457297 0 96.749343 78.707954 175.464673 175.457297 175.464673 96.741967 0 175.449921-78.707954 175.449921-175.464673C694.977001 415.254345 616.269047 336.546391 519.52708 336.546391z" p-id="15197" fill="#8a8a8a"></path><path d="M540.452435 875.7228l-41.850711 0c-18.660962 0-33.847887-15.179549-33.847887-33.840511 0-18.653586 15.186925-33.833135 33.847887-33.833135l41.850711 0c18.653586 0 33.840511 15.179549 33.840511 33.833135C574.292946 860.54325 559.106021 875.7228 540.452435 875.7228zM498.601724 833.864713c-4.4329 0-8.032327 3.599427-8.032327 8.017575 0 4.425525 3.599427 8.024951 8.032327 8.024951l41.850711 0c4.425525 0 8.024951-3.599427 8.024951-8.024951 0-4.418149-3.599427-8.017575-8.024951-8.017575L498.601724 833.864713z" p-id="15198" fill="#8a8a8a"></path><path d="M582.317897 798.180234 456.736262 798.180234c-18.653586 0-33.833135-15.179549-33.833135-33.825759 0-18.668338 15.179549-33.847887 33.833135-33.847887l125.574259 0c18.653586 0 33.833135 15.186925 33.833135 33.847887C616.151033 783.00806 600.971483 798.180234 582.317897 798.180234zM456.736262 756.322147c-4.418149 0-8.017575 3.606803-8.017575 8.032327 0 4.418149 3.599427 8.010199 8.017575 8.010199l125.574259 0c4.425525 0 8.017575-3.592051 8.017575-8.010199 0-4.4329-3.592051-8.032327-8.017575-8.032327L456.736262 756.322147z" p-id="15199" fill="#8a8a8a"></path><path d="M435.810907 742.226851" p-id="15200" fill="#8a8a8a"></path><path d="M512.01844 0C229.234796 0 0 229.234796 0 512.011064c0 282.761516 229.234796 511.988936 512.01844 511.988936 282.761516 0 511.988936-229.22742 511.988936-511.988936C1024.014752 229.234796 794.779955 0 512.01844 0zM512.01844 999.032666c-268.983383 0-487.043729-218.052971-487.043729-487.021602S243.035057 24.982086 512.01844 24.982086c268.976007 0 487.021602 218.052971 487.021602 487.028978S780.994446 999.032666 512.01844 999.032666z" p-id="15201" fill="#8a8a8a"></path></svg>